# xmcd
#
# Track frame offsets:
#	150
#	10031
#	25113
#	37408
#	53661
#	69324
#	87640
#	105424
#	124029
#	139213
#	153804
#	174600
#	195393
#	205415
#
# Disc length: 2995
#
# Revision: 3
# Processed by: cddbd v1.5.1PL0 Copyright (c) Steve Scherf et al.
# Submitted via: CDex 1.50beta9
# Normalized: r2:TDELIM( - )
#
DISCID=b80bb10e
DTITLE=Various Artist - CDX Volume 174 - Nov 1997
DYEAR=1997
DGENRE=Country
TTITLE0=Matt King - I Wrote The Book
TTITLE1=Mark Chesnutt, Vince Gill and Alison Krauss - It's Not Over
TTITLE2=Chely Wright - Just Another Heartache
TTITLE3=Tim McGraw - Just To See You Smile
TTITLE4=James Bonamy - Little Blue Dot
TTITLE5=Ruby Lovett - Look What Love Can Do
TTITLE6=Bryan White - One Small Miracle
TTITLE7=Clint Black - Something That We Do
TTITLE8=James T Horn - Texas Diary
TTITLE9=Kevin Sharp - There's Only You
TTITLE10=Chris Ledoux - This Cowboy's Hat
TTITLE11=Wade Richardson - My Lips Miss Yours
TTITLE12=John Denver - Christmas For Cowboys
TTITLE13=Various Artist - Make A Miracle
EXTD=YEAR: 1997
EXTT0=
EXTT1=
EXTT2=
EXTT3=
EXTT4=
EXTT5=
EXTT6=
EXTT7=
EXTT8=
EXTT9=
EXTT10=
EXTT11=
EXTT12=
EXTT13=
PLAYORDER=
